User Type,Username,Date,Text
[V],.BONE.,2011-09-17T20:39Z,"
PLOT

The horrific account of 6 year old Martin Bristol, abducted from his backyard swing and forced to
witness the brutal crimes of a deranged madman.

http://www.imdb.com/title/tt1100051/

Bereavement 2010

Encoded By .......: BigPerm1828
Runtime ..........: 1h 47mn
File Size ........: 934 MB
Resolution .......: 704x396
IMDb URL .........: http://www.imdb.com/title/tt1100051/
Genre ............: Horror
Language .........: English
Video
ID : 0
Format : MPEG-4 Visual
Format profile : Advanced Simple@L5
Format settings, BVOP : Yes
Format settings, QPel : No
Format settings, GMC : No warppoints
Format settings, Matrix : Default (H.263)
Codec ID : XVID
Codec ID/Hint : XviD
Duration : 1h 47mn
Bit rate : 765 Kbps
Width : 704 pixels
Height : 396 pixels
Display aspect ratio : 16:9
Frame rate : 23.976 fps
Color space : YUV
Chroma subsampling : 4:2:0
Bit depth : 8 bits
Scan type : Progressive
Compression mode : Lossy
Bits/(Pixel*Frame) : 0.114
Stream size : 587 MiB (63%)
Writing library : XviD 1.2.1 (UTC 2008-12-04)

Audio
ID : 1
Format : AC-3
Format/Info : Audio Coding 3
Mode extension : CM (complete main)
Codec ID : 2000
Duration : 1h 47mn
Bit rate mode : Constant
Bit rate : 448 Kbps
Channel(s) : 6 channels
Channel positions : Front: L C R, Side: L R, LFE
Sampling rate : 48.0 KHz
Bit depth : 16 bits
Compression mode : Lossy
Video delay : 42ms
Stream size : 344 MiB (37%)
Alignment : Split accross interleaves
Interleave, duration : 500 ms (11.99 video frames)
Interleave, preload duration : 500 ms"
,Nolgthorn,2011-09-18T14:22Z,Do these films relate to one another?
,JONBOY179,2011-09-24T00:37Z,gana down load bud cos every one i get off you i seed and av not had a bad one yet mate  cheers bud ? thanks cheerd john ?
